<svg width="24" height="24" viewBox="0 0 24 24" fill="none" xmlns="http://www.w3.org/2000/svg">
<path d="M12.0219 0.0905762C5.40763 0.0905762 0.0441284 5.54453 0.0441284 12.2729C0.0441284 17.6554 3.47613 22.2219 8.23527 23.8328C8.83388 23.9455 9.05365 23.5685 9.05365 23.2467C9.05365 22.9562 9.04254 21.9966 9.03738 20.9786C5.70515 21.7155 5.00201 19.5412 5.00201 19.5412C4.45715 18.1331 3.6721 17.7587 3.6721 17.7587C2.58535 17.0026 3.75401 17.0181 3.75401 17.0181C4.95679 17.1038 5.59011 18.2735 5.59011 18.2735C6.65841 20.1359 8.39216 19.5975 9.07567 19.2862C9.18317 18.4991 9.49358 17.9612 9.83613 17.6572C7.1757 17.3492 4.379 16.3046 4.379 11.6366C4.379 10.3065 4.84691 9.21977 5.61312 8.36662C5.48876 8.05958 5.07877 6.82071 5.72915 5.14267C5.72915 5.14267 6.73497 4.81525 9.0239 6.39142C9.97933 6.1215 11.004 5.98613 12.0219 5.98149C13.0398 5.98613 14.0653 6.1215 15.0225 6.39142C17.3087 4.81525 18.3131 5.14267 18.3131 5.14267C18.9651 6.82071 18.5549 8.05958 18.4305 8.36662C19.1985 9.21977 19.6632 10.3065 19.6632 11.6366C19.6632 16.3157 16.8612 17.3459 14.194 17.6475C14.6236 18.0256 15.0064 18.767 15.0064 19.9035C15.0064 21.5334 14.9926 22.8453 14.9926 23.2467C14.9926 23.5709 15.2082 23.9508 15.8153 23.8312C20.5719 22.2185 23.9995 17.6536 23.9995 12.2729C23.9995 5.54453 18.6368 0.0905762 12.0219 0.0905762Z" fill="#BBCFE7"/>
<path d="M4.58042 17.581C4.55404 17.6418 4.46042 17.6597 4.37514 17.6182C4.28826 17.5784 4.23947 17.4959 4.26763 17.4352C4.29342 17.3729 4.38723 17.3557 4.47391 17.3971C4.56099 17.437 4.61057 17.5203 4.58042 17.581Z" fill="#BBCFE7"/>
<path d="M5.06559 18.1315C5.00846 18.1854 4.89679 18.1603 4.82102 18.0752C4.74268 17.9903 4.728 17.8767 4.78592 17.822C4.84482 17.7682 4.95312 17.7934 5.03167 17.8783C5.11002 17.9643 5.12529 18.077 5.06559 18.1315Z" fill="#BBCFE7"/>
<path d="M5.53787 18.8332C5.46448 18.8851 5.34448 18.8364 5.2703 18.7281C5.19691 18.6198 5.19691 18.4899 5.27189 18.4378C5.34627 18.3858 5.46448 18.4326 5.53965 18.5401C5.61284 18.65 5.61284 18.7802 5.53787 18.8332Z" fill="#BBCFE7"/>
<path d="M6.18488 19.511C6.11923 19.5846 5.97939 19.5648 5.87705 19.4644C5.77232 19.3661 5.74316 19.2267 5.80901 19.1531C5.87546 19.0792 6.01609 19.1 6.11923 19.1997C6.22316 19.2977 6.2549 19.4381 6.18488 19.511Z" fill="#BBCFE7"/>
<path d="M7.07745 19.9045C7.04849 19.9999 6.91381 20.0433 6.77814 20.0028C6.64267 19.961 6.55401 19.8492 6.58138 19.7528C6.60954 19.6568 6.74482 19.6116 6.88148 19.655C7.01675 19.6965 7.10561 19.8075 7.07745 19.9045Z" fill="#BBCFE7"/>
<path d="M8.05768 19.9776C8.06105 20.0781 7.94601 20.1614 7.8036 20.163C7.66039 20.1664 7.54456 20.0851 7.54297 19.9863C7.54297 19.8848 7.65543 19.8023 7.79864 19.7999C7.94105 19.7971 8.05768 19.8777 8.05768 19.9776Z" fill="#BBCFE7"/>
<path d="M8.96985 19.8197C8.98691 19.9178 8.88794 20.0184 8.74651 20.0451C8.60747 20.0711 8.47875 20.0106 8.46109 19.9133C8.44384 19.8129 8.5446 19.7122 8.68344 19.6862C8.82506 19.6611 8.9518 19.7201 8.96985 19.8197Z" fill="#BBCFE7"/>
</svg>
